# xmcd
#
# Track frame offsets:
#	150
#	10322
#	21203
#	29375
#	37592
#	45598
#	58282
#	65855
#	77303
#	87998
#	100299
#	110202
#	122965
#	132384
#	141058
#	153569
#	164171
#	177101
#	187540
#	198389
#	210218
#	220351
#	229608
#	238930
#	250208
#	263840
#	273084
#	282492
#	292605
#	305415
#	319261
#	331187
#	341410
#	351139
#	362085
#
# Disc length: 4965 seconds
# Revision: 6
# Processed by: cddbd v1.5.2PL0 Copyright (c) Steve Scherf et al.
# Submitted via: dBpowerAMP V12.0
#
DISCID=05136323
DTITLE=Buck Owens - Open Up Your Heart: The Buck Owens and the Buckaroos Recordings 1965-1968, CD05 - CD07
DYEAR=2010
DGENRE=Country
TTITLE0=I'm Coming Back Home to Stay
TTITLE1=The Waltz of the Roses
TTITLE2=Pedal Patter
TTITLE3=Down on the Bayou
TTITLE4=Pretty Girl
TTITLE5=Sad Is the Lonely
TTITLE6=Rattle Traps
TTITLE7=Leave Me Something to Remeber You By
TTITLE8=That's All Right with Me (If It's All Right with You)
TTITLE9=Wait a Little Longer, Please Jesus
TTITLE10=Hello Happiness, Goodbye Loneliness
TTITLE11=Don't Let True Love Slip Away
TTITLE12=The Great Judgement Day
TTITLE13=Sally, Mary and Jerry
TTITLE14=In God I Trust
TTITLE15=Buckaroo Polka
TTITLE16=All I Want for Christmas Is My Daddy
TTITLE17=Christmas Shopping
TTITLE18=One of Everything You Got
TTITLE19=Good Old Fashioned Country Christmas
TTITLE20=The Jolly Christmas Polka
TTITLE21=Let the World Keep on a Turnin'
TTITLE22=I'll Love You Forever and Ever
TTITLE23=A Very Merry Christmas
TTITLE24=Christmas Time Is Near
TTITLE25=Tomorrow Is Christmas Day
TTITLE26=Christmas Schottische
TTITLE27=Home on Christmas Day
TTITLE28=Merry Christmas from Our House to Yours
TTITLE29=It's Not What You Give
TTITLE30=You Let Me Down
TTITLE31=Woman Truck Drivin' Fool
TTITLE32=I Got a Letterfrom Home
TTITLE33=Pitty Pitty Patter
TTITLE34=I'm Goin' Back Home Where I Belong
EXTD=
EXTT0=
EXTT1=
EXTT2=
EXTT3=
EXTT4=
EXTT5=
EXTT6=
EXTT7=
EXTT8=
EXTT9=
EXTT10=
EXTT11=
EXTT12=
EXTT13=
EXTT14=
EXTT15=
EXTT16=
EXTT17=
EXTT18=
EXTT19=
EXTT20=
EXTT21=
EXTT22=
EXTT23=
EXTT24=
EXTT25=
EXTT26=
EXTT27=
EXTT28=
EXTT29=
EXTT30=
EXTT31=
EXTT32=
EXTT33=
EXTT34=
PLAYORDER=
